# Blender 3.6.4
# www.blender.org
mtllib rail_bridge_concrete_gray.mtl
o Cube.001
v 2.299375 -0.321271 0.600124
v 2.299375 0.999884 0.600124
v 2.299375 -0.321272 -0.599876
v 2.299375 0.999883 -0.599876
v 2.499375 -0.321271 0.600124
v 2.499375 0.999884 0.600124
v 2.499375 -0.321272 -0.599876
v 2.499375 0.999883 -0.599876
vn -1.0000 -0.0000 -0.0000
vn -0.0000 -0.0000 -1.0000
vn 1.0000 -0.0000 -0.0000
vn -0.0000 -0.0000 1.0000
vn -0.0000 -1.0000 -0.0000
vn -0.0000 1.0000 -0.0000
vt 0.375000 0.000000
vt 0.625000 0.000000
vt 0.625000 0.250000
vt 0.375000 0.250000
vt 0.625000 0.500000
vt 0.375000 0.500000
vt 0.625000 0.750000
vt 0.375000 0.750000
vt 0.625000 1.000000
vt 0.375000 1.000000
vt 0.125000 0.500000
vt 0.125000 0.750000
vt 0.875000 0.500000
vt 0.875000 0.750000
s 0
usemtl Material.002
f 1/1/1 2/2/1 4/3/1 3/4/1
f 3/4/2 4/3/2 8/5/2 7/6/2
f 7/6/3 8/5/3 6/7/3 5/8/3
f 5/8/4 6/7/4 2/9/4 1/10/4
f 3/11/5 7/6/5 5/8/5 1/12/5
f 8/5/6 4/13/6 2/14/6 6/7/6
o Cube.002
v -0.581284 -0.017765 0.600000
v -0.581284 0.182234 0.600000
v -0.581284 -0.017766 -0.600000
v -0.581284 0.182234 -0.600000
v 0.581284 -0.017765 0.600000
v 0.581284 0.182234 0.600000
v 0.581284 -0.017766 -0.600000
v 0.581284 0.182234 -0.600000
vn -1.0000 -0.0000 -0.0000
vn -0.0000 -0.0000 -1.0000
vn 1.0000 -0.0000 -0.0000
vn -0.0000 -0.0000 1.0000
vn -0.0000 -1.0000 -0.0000
vn -0.0000 1.0000 -0.0000
vt 0.375000 0.000000
vt 0.625000 0.000000
vt 0.625000 0.250000
vt 0.375000 0.250000
vt 0.625000 0.500000
vt 0.375000 0.500000
vt 0.625000 0.750000
vt 0.375000 0.750000
vt 0.625000 1.000000
vt 0.375000 1.000000
vt 0.125000 0.500000
vt 0.125000 0.750000
vt 0.875000 0.500000
vt 0.875000 0.750000
s 0
usemtl Material.002
f 9/15/7 10/16/7 12/17/7 11/18/7
f 11/18/8 12/17/8 16/19/8 15/20/8
f 15/20/9 16/19/9 14/21/9 13/22/9
f 13/22/10 14/21/10 10/23/10 9/24/10
f 11/25/11 15/20/11 13/22/11 9/26/11
f 16/19/12 12/27/12 10/28/12 14/21/12
o Cube.003
v -2.483375 -0.329425 0.600000
v -2.483375 0.003387 0.600000
v -2.483375 -0.329425 -0.600000
v -2.483375 0.003387 -0.600000
v 2.480375 -0.329425 0.600000
v 2.480375 0.003387 0.600000
v 2.480375 -0.329425 -0.600000
v 2.480375 0.003387 -0.600000
vn -1.0000 -0.0000 -0.0000
vn -0.0000 -0.0000 -1.0000
vn 1.0000 -0.0000 -0.0000
vn -0.0000 -0.0000 1.0000
vn -0.0000 -1.0000 -0.0000
vn -0.0000 1.0000 -0.0000
vt 0.375000 0.000000
vt 0.625000 0.000000
vt 0.625000 0.250000
vt 0.375000 0.250000
vt 0.625000 0.500000
vt 0.375000 0.500000
vt 0.625000 0.750000
vt 0.375000 0.750000
vt 0.625000 1.000000
vt 0.375000 1.000000
vt 0.125000 0.500000
vt 0.125000 0.750000
vt 0.875000 0.500000
vt 0.875000 0.750000
s 0
usemtl Material.002
f 17/29/13 18/30/13 20/31/13 19/32/13
f 19/32/14 20/31/14 24/33/14 23/34/14
f 23/34/15 24/33/15 22/35/15 21/36/15
f 21/36/16 22/35/16 18/37/16 17/38/16
f 19/39/17 23/34/17 21/36/17 17/40/17
f 24/33/18 20/41/18 18/42/18 22/35/18
o Cube.004
v -2.499875 -0.321271 0.600124
v -2.499875 0.999884 0.600124
v -2.499875 -0.321272 -0.599876
v -2.499875 0.999883 -0.599876
v -2.299875 -0.321271 0.600124
v -2.299875 0.999884 0.600124
v -2.299875 -0.321272 -0.599876
v -2.299875 0.999883 -0.599876
vn -1.0000 -0.0000 -0.0000
vn -0.0000 -0.0000 -1.0000
vn 1.0000 -0.0000 -0.0000
vn -0.0000 -0.0000 1.0000
vn -0.0000 -1.0000 -0.0000
vn -0.0000 1.0000 -0.0000
vt 0.375000 0.000000
vt 0.625000 0.000000
vt 0.625000 0.250000
vt 0.375000 0.250000
vt 0.625000 0.500000
vt 0.375000 0.500000
vt 0.625000 0.750000
vt 0.375000 0.750000
vt 0.625000 1.000000
vt 0.375000 1.000000
vt 0.125000 0.500000
vt 0.125000 0.750000
vt 0.875000 0.500000
vt 0.875000 0.750000
s 0
usemtl Material.001
f 25/43/19 26/44/19 28/45/19 27/46/19
f 27/46/20 28/45/20 32/47/20 31/48/20
f 31/48/21 32/47/21 30/49/21 29/50/21
f 29/50/22 30/49/22 26/51/22 25/52/22
f 27/53/23 31/48/23 29/50/23 25/54/23
f 32/47/24 28/55/24 26/56/24 30/49/24
o rail_c
v 0.989182 0.089031 0.355011
v 1.312507 0.005030 0.380011
v 1.312507 0.005030 0.160011
v -0.989182 0.089029 -0.361346
v -0.291344 0.005029 -0.361346
v -1.312507 0.005029 -0.386346
v -0.291993 -0.139648 -0.401346
v -1.312507 -0.139648 -0.429346
v 0.821035 0.062558 -0.266597
v 0.956694 0.077900 -0.266597
v 0.942829 0.207609 -0.266597
v 0.807169 0.192266 -0.266597
v 0.821035 0.062558 -0.286124
v 0.807169 0.192266 -0.286124
v 0.942829 0.207609 -0.286124
v 0.956694 0.077900 -0.286124
v 0.755345 0.062206 -0.266597
v 0.739635 0.191692 -0.266597
v 0.604207 0.174308 -0.266598
v 0.619919 0.044823 -0.266598
v 0.755345 0.062206 -0.286123
v 0.619919 0.044823 -0.286124
v 0.604207 0.174308 -0.286124
v 0.739635 0.191692 -0.286123
v -0.821035 0.062558 -0.266598
v -0.807169 0.192266 -0.266598
v -0.942829 0.207609 -0.266598
v -0.956694 0.077900 -0.266598
v -0.821035 0.062558 -0.286124
v -0.956694 0.077900 -0.286124
v -0.942829 0.207609 -0.286124
v -0.807169 0.192266 -0.286124
v -0.755345 0.062206 -0.266598
v -0.619919 0.044823 -0.266598
v -0.604207 0.174308 -0.266598
v -0.739635 0.191692 -0.266598
v -0.755345 0.062206 -0.286124
v -0.739635 0.191692 -0.286124
v -0.604207 0.174308 -0.286124
v -0.619919 0.044823 -0.286124
v 0.989182 0.089031 0.355011
v 0.291344 0.005030 0.355010
v 1.312507 0.005030 0.380011
v 1.312507 -0.139647 0.423011
v 0.291993 -0.139647 0.395010
v -0.942829 0.207610 0.279759
v -0.956694 0.077901 0.279759
v -0.821035 0.062559 0.279759
v -0.807169 0.192267 0.279759
v -0.821035 0.062559 0.260233
v -0.956694 0.077901 0.260232
v -0.942829 0.207610 0.260232
v -0.807169 0.192267 0.260233
v -0.755345 0.062207 0.279759
v -0.619919 0.044824 0.279759
v -0.604207 0.174309 0.279759
v -0.739635 0.191693 0.279759
v -0.755345 0.062207 0.260233
v -0.739635 0.191693 0.260233
v -0.604207 0.174309 0.260232
v -0.619919 0.044824 0.260232
v 1.312507 0.005030 0.160011
v 0.989182 0.089030 0.185011
v 0.989182 0.089031 0.355011
v 1.312507 0.005030 0.380011
v 1.312507 -0.139647 0.423011
v 1.312507 -0.139647 0.117011
v 1.312507 0.005030 0.160011
v 0.989182 0.089030 0.185011
v 1.312507 0.005030 0.160011
v 0.291344 0.005030 0.185010
v 0.291993 -0.139647 0.145010
v 1.312507 -0.139647 0.117011
v 0.989182 0.089031 0.355011
v 0.989182 0.089030 0.185011
v 0.291344 0.005030 0.185010
v 0.291344 0.005030 0.185010
v 0.291344 0.005030 0.355010
v 0.989182 0.089031 0.355011
v -0.989182 0.089031 0.355010
v -1.312507 0.005030 0.380010
v -0.291344 0.005030 0.355010
v -1.312507 -0.139647 0.423010
v -0.291993 -0.139647 0.395010
v -0.291993 -0.139647 0.395010
v 0.291993 -0.139647 0.395010
v 0.291344 0.005030 0.355010
v 0.291344 0.005030 0.355010
v -0.291344 0.005030 0.355010
v -0.291993 -0.139647 0.395010
v -0.989182 0.089031 0.355010
v -0.989182 0.089030 0.185010
v -1.312507 0.005030 0.160010
v -1.312507 0.005030 0.160010
v -1.312507 0.005030 0.380010
v -0.989182 0.089031 0.355010
v -1.312507 0.005030 0.380010
v -1.312507 0.005030 0.160010
v -1.312507 -0.139647 0.117010
v -1.312507 -0.139647 0.423010
v -0.989182 0.089030 0.185010
v -0.291344 0.005030 0.185010
v -1.312507 0.005030 0.160010
v -0.291993 -0.139647 0.145010
v -1.312507 -0.139647 0.117010
v -0.989182 0.089031 0.355010
v -0.291344 0.005030 0.355010
v -0.291344 0.005030 0.185010
v -0.291344 0.005030 0.185010
v -0.989182 0.089030 0.185010
v -0.989182 0.089031 0.355010
v 0.291344 0.005030 0.355010
v 0.291344 0.005030 0.185010
v -0.291344 0.005030 0.185010
v -0.291344 0.005030 0.185010
v -0.291344 0.005030 0.355010
v 0.291344 0.005030 0.355010
v 0.291344 0.005030 0.185010
v 0.291993 -0.139647 0.145010
v -0.291993 -0.139647 0.145010
v -0.291993 -0.139647 0.145010
v -0.291344 0.005030 0.185010
v 0.291344 0.005030 0.185010
v 0.821035 0.062559 0.279759
v 0.956694 0.077901 0.279759
v 0.942828 0.207610 0.279759
v 0.807169 0.192267 0.279759
v 0.821035 0.062559 0.260233
v 0.807169 0.192267 0.260233
v 0.942828 0.207610 0.260233
v 0.956694 0.077901 0.260233
v 0.755345 0.062207 0.279759
v 0.739635 0.191693 0.279759
v 0.604207 0.174309 0.279759
v 0.619919 0.044824 0.279759
v 0.755345 0.062207 0.260233
v 0.619919 0.044824 0.260233
v 0.604207 0.174309 0.260233
v 0.739635 0.191693 0.260233
v 0.989182 0.089029 -0.191346
v 0.291344 0.005029 -0.191346
v 1.312507 0.005029 -0.166346
v 1.312507 -0.139648 -0.123346
v 0.291993 -0.139648 -0.151346
v 0.989182 0.089029 -0.191346
v 1.312507 0.005029 -0.166346
v 1.312507 0.005029 -0.386346
v 1.312507 0.005029 -0.386346
v 0.989182 0.089029 -0.361346
v 0.989182 0.089029 -0.191346
v 1.312507 0.005029 -0.166346
v 1.312507 -0.139648 -0.123346
v 1.312507 -0.139648 -0.429346
v 1.312507 -0.139648 -0.429346
v 1.312507 0.005029 -0.386346
v 1.312507 0.005029 -0.166346
v 0.989182 0.089029 -0.361346
v 1.312507 0.005029 -0.386346
v 0.291344 0.005029 -0.361346
v 0.291993 -0.139648 -0.401346
v 1.312507 -0.139648 -0.429346
v 0.989182 0.089029 -0.191346
v 0.989182 0.089029 -0.361346
v 0.291344 0.005029 -0.361346
v 0.291344 0.005029 -0.361346
v 0.291344 0.005029 -0.191346
v 0.989182 0.089029 -0.191346
v -0.989182 0.089029 -0.191346
v -1.312507 0.005029 -0.166346
v -0.291344 0.005029 -0.191346
v -1.312507 -0.139648 -0.123346
v -0.291993 -0.139648 -0.151346
v -0.291993 -0.139648 -0.151346
v 0.291993 -0.139648 -0.151346
v 0.291344 0.005029 -0.191346
v 0.291344 0.005029 -0.191346
v -0.291344 0.005029 -0.191346
v -0.291993 -0.139648 -0.151346
v -0.989182 0.089029 -0.191346
v -0.989182 0.089029 -0.361346
v -1.312507 0.005029 -0.386346
v -1.312507 0.005029 -0.386346
v -1.312507 0.005029 -0.166346
v -0.989182 0.089029 -0.191346
v -1.312507 0.005029 -0.166346
v -1.312507 0.005029 -0.386346
v -1.312507 -0.139648 -0.429346
v -1.312507 -0.139648 -0.123346
v -0.989182 0.089029 -0.191346
v -0.291344 0.005029 -0.191346
v -0.291344 0.005029 -0.361346
v -0.291344 0.005029 -0.361346
v -0.989182 0.089029 -0.361346
v -0.989182 0.089029 -0.191346
v 0.291344 0.005029 -0.191346
v 0.291344 0.005029 -0.361346
v -0.291344 0.005029 -0.361346
v -0.291344 0.005029 -0.361346
v -0.291344 0.005029 -0.191346
v 0.291344 0.005029 -0.191346
v 0.291344 0.005029 -0.361346
v 0.291993 -0.139648 -0.401346
v -0.291993 -0.139648 -0.401346
v -0.291993 -0.139648 -0.401346
v -0.291344 0.005029 -0.361346
v 0.291344 0.005029 -0.361346
v -0.736087 0.208446 -0.603553
v -0.740513 0.236444 -0.603553
v -0.740512 0.236446 0.599725
v -0.736087 0.208447 0.599725
v -0.763251 0.195925 -0.603553
v -0.763250 0.195926 0.599725
v -0.757391 0.092346 -0.603553
v -0.757391 0.092348 0.599725
v -0.706361 0.066529 -0.603553
v -0.706360 0.066532 0.599725
v -0.808848 0.212186 0.599725
v -0.801732 0.239592 0.599725
v -0.801732 0.239590 -0.603553
v -0.808849 0.212185 -0.603553
v -0.783033 0.196943 0.599725
v -0.783034 0.196941 -0.603553
v -0.798901 0.094481 0.599725
v -0.798901 0.094479 -0.603553
v -0.852178 0.074025 0.599725
v -0.852179 0.074022 -0.603553
v 0.808849 0.212184 -0.603553
v 0.801732 0.239589 -0.603553
v 0.801732 0.239592 0.599725
v 0.808848 0.212186 0.599725
v 0.736087 0.208447 0.599725
v 0.740512 0.236446 0.599725
v 0.740513 0.236444 -0.603553
v 0.736088 0.208446 -0.603553
v 0.763250 0.195926 0.599725
v 0.763251 0.195925 -0.603553
v 0.757391 0.092348 0.599725
v 0.757391 0.092345 -0.603553
v 0.706360 0.066531 0.599725
v 0.706361 0.066529 -0.603553
v 0.783034 0.196940 -0.603553
v 0.783033 0.196943 0.599725
v 0.798901 0.094478 -0.603553
v 0.798901 0.094481 0.599725
v 0.852179 0.074022 -0.603553
v 0.852178 0.074024 0.599725
v -0.801732 0.239592 0.599725
v -0.740512 0.236446 0.599725
v -0.740513 0.236444 -0.603553
v -0.801732 0.239590 -0.603553
v 0.801732 0.239592 0.599725
v 0.801732 0.239589 -0.603553
v 0.740513 0.236444 -0.603553
v 0.740512 0.236446 0.599725
vn 0.2515 0.9679 -0.0000
vn 0.0240 0.1992 -0.9797
vn 0.0236 0.2663 -0.9636
vn 0.0263 0.2848 -0.9582
vn -0.0000 -0.0000 1.0000
vn -0.0000 -0.0000 -1.0000
vn -0.0240 0.1992 0.9797
vn -0.0235 0.2848 0.9583
vn -0.0264 0.2663 0.9635
vn 1.0000 -0.0000 -0.0000
vn -0.0240 0.1993 -0.9797
vn -0.0236 0.2663 -0.9636
vn -0.0263 0.2848 -0.9582
vn -0.1195 0.9928 -0.0000
vn 0.0240 0.1992 0.9797
vn 0.0235 0.2848 0.9583
vn 0.0264 0.2663 0.9635
vn -0.0000 0.2665 0.9638
vn -0.2515 0.9679 -0.0000
vn -1.0000 -0.0000 -0.0000
vn 0.1195 0.9928 -0.0000
vn -0.0000 1.0000 -0.0000
vn -0.0000 0.2665 -0.9638
vn -0.0240 0.1992 -0.9797
vn 0.9877 0.1561 -0.0000
vn 0.4186 -0.9082 -0.0000
vn 0.9984 0.0565 -0.0000
vn 0.4514 0.8923 -0.0000
vn -0.9679 0.2513 -0.0000
vn -0.9679 0.2514 -0.0000
vn -0.5084 -0.8611 -0.0000
vn -0.5085 -0.8611 -0.0000
vn -0.9882 0.1530 -0.0000
vn -0.3584 0.9336 -0.0000
vn -0.3585 0.9335 -0.0000
vn 0.9679 0.2514 -0.0000
vn 0.9679 0.2513 -0.0000
vn -0.9877 0.1561 -0.0000
vn -0.4186 -0.9082 -0.0000
vn -0.9984 0.0565 -0.0000
vn -0.4514 0.8923 -0.0000
vn 0.5085 -0.8611 -0.0000
vn 0.5084 -0.8611 -0.0000
vn 0.9882 0.1530 -0.0000
vn 0.3584 0.9336 -0.0000
vn 0.3585 0.9335 -0.0000
vn 0.0513 0.9987 -0.0000
vn -0.0513 0.9987 -0.0000
vt 0.950754 0.836422
vt 0.988938 0.813109
vt 0.988938 0.887206
vt 0.647548 0.963931
vt 0.755681 0.963205
vt 0.612000 0.984182
vt 0.755582 0.990957
vt 0.600123 1.000089
vt 0.502958 0.851849
vt 0.597059 0.851849
vt 0.597059 0.997668
vt 0.502958 0.997668
vt 0.844507 0.836422
vt 0.999981 0.800068
vt 0.844605 0.809234
vt 0.950754 0.862551
vt 0.999981 0.900247
vt 0.844507 0.862551
vt 0.844605 0.891080
vt 0.647717 0.835598
vt 0.612188 0.817094
vt 0.755791 0.836543
vt 0.600317 0.800068
vt 0.755692 0.809234
vt 0.647717 0.862787
vt 0.612188 0.884280
vt 0.600317 0.900247
vt 0.755791 0.862672
vt 0.755692 0.891080
vt 0.503314 0.852028
vt 0.597416 0.852028
vt 0.597416 0.997846
vt 0.503314 0.997846
vt 0.950749 0.937175
vt 0.844444 0.937175
vt 0.988953 0.913282
vt 1.000002 0.900291
vt 0.844543 0.909422
vt 0.988953 0.987098
vt 0.950749 0.963205
vt 1.000002 1.000089
vt 0.844444 0.963205
vt 0.844543 0.990957
vt 0.647548 0.936846
vt 0.612000 0.917253
vt 0.755681 0.937175
vt 0.600123 0.900291
vt 0.755582 0.909422
vt 0.581038 0.847774
vt 0.596454 0.847774
vt 0.596454 0.451091
vt 0.581038 0.451091
vt 0.566921 0.847774
vt 0.566920 0.451091
vt 0.523484 0.847774
vt 0.523484 0.451091
vt 0.503745 0.847774
vt 0.503755 0.451091
vt 0.990928 0.182902
vt 0.991528 0.795100
vt 0.003559 0.795530
vt 0.002958 0.183313
s 1
usemtl rails_alpha.m.tbumptex
f 33/57/25 34/58/25 35/59/25
f 36/60/26 37/61/26 38/62/26
f 38/62/27 37/61/27 39/63/27
f 39/63/28 40/64/28 38/62/28
f 41/65/29 42/66/29 43/67/29
f 43/67/29 44/68/29 41/65/29
f 45/65/30 46/68/30 47/67/30
f 47/67/30 48/66/30 45/65/30
f 49/65/29 50/68/29 51/67/29
f 51/67/29 52/66/29 49/65/29
f 53/65/30 54/66/30 55/67/30
f 55/67/30 56/68/30 53/65/30
f 57/65/29 58/68/29 59/67/29
f 59/67/29 60/66/29 57/65/29
f 61/65/30 62/66/30 63/67/30
f 63/67/30 64/68/30 61/65/30
f 65/65/29 66/66/29 67/67/29
f 67/67/29 68/68/29 65/65/29
f 69/65/30 70/68/30 71/67/30
f 71/67/30 72/66/30 69/65/30
f 73/57/31 74/69/31 75/58/31
f 76/70/32 75/58/32 74/69/32
f 74/69/33 77/71/33 76/70/33
f 78/67/29 79/66/29 80/65/29
f 80/65/29 81/68/29 78/67/29
f 82/65/30 83/66/30 84/67/30
f 84/67/30 85/68/30 82/65/30
f 86/65/29 87/66/29 88/67/29
f 88/67/29 89/68/29 86/65/29
f 90/65/30 91/68/30 92/67/30
f 92/67/30 93/66/30 90/65/30
f 94/59/25 95/72/25 96/57/25
f 97/58/34 98/70/34 99/73/34
f 99/73/34 100/59/34 97/58/34
f 101/72/35 102/59/35 103/74/35
f 104/75/36 103/74/36 102/59/36
f 102/59/37 105/73/37 104/75/37
f 106/57/38 107/72/38 108/74/38
f 109/74/38 110/69/38 111/57/38
f 112/76/39 113/77/39 114/78/39
f 114/78/40 113/77/40 115/79/40
f 115/79/41 116/80/41 114/78/41
f 117/80/42 118/71/42 119/69/42
f 120/69/42 121/78/42 122/80/42
f 123/76/43 124/81/43 125/82/43
f 126/82/43 127/77/43 128/76/43
f 129/77/44 130/82/44 131/83/44
f 131/83/44 132/79/44 129/77/44
f 133/81/26 134/84/26 135/82/26
f 135/82/27 134/84/27 136/85/27
f 136/85/28 137/83/28 135/82/28
f 138/76/45 139/78/45 140/84/45
f 141/84/45 142/81/45 143/76/45
f 144/69/46 145/74/46 146/84/46
f 147/84/46 148/78/46 149/69/46
f 150/74/47 151/75/47 152/85/47
f 153/85/47 154/84/47 155/74/47
f 156/86/29 157/87/29 158/88/29
f 158/88/29 159/89/29 156/86/29
f 160/65/30 161/68/30 162/67/30
f 162/67/30 163/66/30 160/65/30
f 164/65/29 165/68/29 166/67/29
f 166/67/29 167/66/29 164/65/29
f 168/65/30 169/66/30 170/67/30
f 170/67/30 171/68/30 168/65/30
f 172/90/31 173/91/31 174/92/31
f 175/93/32 174/92/32 173/91/32
f 173/91/33 176/94/33 175/93/33
f 177/90/25 178/92/25 179/95/25
f 180/95/25 181/96/25 182/90/25
f 183/92/34 184/93/34 185/97/34
f 186/97/34 187/95/34 188/92/34
f 189/96/48 190/95/48 191/98/48
f 192/99/36 191/98/36 190/95/36
f 190/95/37 193/97/37 192/99/37
f 194/90/38 195/96/38 196/98/38
f 197/98/38 198/91/38 199/90/38
f 200/100/39 201/101/39 202/102/39
f 202/102/40 201/101/40 203/103/40
f 203/103/41 204/104/41 202/102/41
f 205/104/42 206/94/42 207/91/42
f 208/91/42 209/102/42 210/104/42
f 211/100/43 212/60/43 213/62/43
f 214/62/43 215/101/43 216/100/43
f 217/101/44 218/62/44 219/64/44
f 219/64/44 220/103/44 217/101/44
f 221/100/45 222/102/45 223/61/45
f 224/61/45 225/60/45 226/100/45
f 227/91/46 228/98/46 229/61/46
f 230/61/46 231/102/46 232/91/46
f 233/98/47 234/99/47 235/63/47
f 236/63/47 237/61/47 238/98/47
f 239/105/49 240/106/49 241/107/49
f 241/107/49 242/108/49 239/105/49
f 243/109/50 239/105/50 242/108/50
f 242/108/50 244/110/50 243/109/50
f 245/111/51 243/109/51 244/110/51
f 244/110/51 246/112/51 245/111/51
f 247/113/52 245/111/52 246/112/52
f 246/112/52 248/114/52 247/113/52
f 249/108/53 250/107/53 251/106/54
f 251/106/54 252/105/54 249/108/53
f 253/110/55 249/108/55 252/105/56
f 252/105/56 254/109/56 253/110/55
f 255/112/57 253/110/57 254/109/57
f 254/109/57 256/111/57 255/112/57
f 257/114/58 255/112/58 256/111/59
f 256/111/59 258/113/59 257/114/58
f 259/105/60 260/106/60 261/107/61
f 261/107/61 262/108/61 259/105/60
f 263/108/62 264/107/62 265/106/62
f 265/106/62 266/105/62 263/108/62
f 267/110/63 263/108/63 266/105/63
f 266/105/63 268/109/63 267/110/63
f 269/112/64 267/110/64 268/109/64
f 268/109/64 270/111/64 269/112/64
f 271/114/65 269/112/65 270/111/65
f 270/111/65 272/113/65 271/114/65
f 273/109/66 259/105/66 262/108/67
f 262/108/67 274/110/67 273/109/66
f 275/111/68 273/109/68 274/110/68
f 274/110/68 276/112/68 275/111/68
f 277/113/69 275/111/69 276/112/70
f 276/112/70 278/114/70 277/113/69
usemtl rails_head.m.tbumpenv
f 279/115/71 280/116/71 281/117/71
f 281/117/71 282/118/71 279/115/71
f 283/115/72 284/118/72 285/117/72
f 285/117/72 286/116/72 283/115/72
